<svg enable-background="new 0 0 140 140" height="512" viewBox="0 0 140 140" width="512" xmlns="http://www.w3.org/2000/svg"><path d="m134 70.0750122c0 1.75-.0700073 3.4799805-.210022 5.1900635-2.4899902 31.0299072-27.1199951 55.8099365-58.0700073 58.5499268-1.8800049.1700439-3.789978.2600098-5.7199707.2600098-35.3500366 0-64-28.6500244-64-64 0-35.3399658 28.6499634-64 64-64 35.3399658-.0000001 64 28.6600341 64 63.9999999z" fill="#334d5c"/><path d="m96.6499634 38.1349487c-.0899658-.0899658-.1900024-.1799316-.289978-.2700195-.1099854-.0998535-.2399903-.1899414-.3699952-.2799072-.0900269-.0699463-.2000122-.1300049-.2999878-.1800537-.2300415-.1298828-.4700317-.2299805-.7200317-.3099365-.2299805-.0699464-.4699707-.1199952-.7199707-.1500245-.1500244-.0200195-.3200073-.0300293-.4800415-.0300293h-23.0499878c-1.3099976 0-2.5299683-.6298828-3.289978-1.6999512l-1.0800171-1.5200195c-.75-1.0600586-1.9799805-1.6999512-3.2800293-1.6999512h-16.8499756c-2.2299805 0-4.0299683 1.8099365-4.0299683 4.0300293v44.0998536c0 .1800537.0099487.3601074.0299683.5300293.0200195.1700439.0499878.3400879.0900269.5100098 0 .0200195 0 .0400391.0099487.0500488.0300293.1499023.0800171.3000488.1300049.4499512.0500488.1600342.1100464.3200684.1900024.4699707.0700073.1501465.1500244.3000488.2300415.4400635.2599487.4300537.5899658.8199463.9699707 1.1500244l.1000366.1099854c.0099487.0100098.0299683.0200195.039978.0299072l12.25 12.25h-14.039978v4.170166l33.5299072 33.5299072h.000061c30.9500122-2.7399902 55.5800171-27.5200195 58.0700073-58.5499268l-37.1300049-37.130127z" opacity=".1"/><path d="m72.083725 96.1105499v-16.7213897l-4.1759033.1335372v16.5878525h-25.7198067v4.1759568h55.6155205v-4.1759568z" fill="#ebf0f3"/><path d="m93.7722626 36.9190712h-23.0513306c-1.3069458 0-2.5327988-.6336555-3.2886734-1.6997719l-1.0784225-1.5212059c-.7558746-1.0661163-1.9817276-1.69977-3.2886772-1.69977h-16.8458748c-2.2264023 0-4.0312691 1.8047581-4.0312691 4.0312176v.8895302 1.3039818 31.4307022c0 2.2263489 1.8048668 4.0312119 4.0312691 4.0312119h47.5529785c2.2264099 0 4.0312729-1.804863 4.0312729-4.0312119v-28.7034721c0-2.2264557-1.804863-4.0312119-4.0312729-4.0312119z" fill="#f7be56"/><path d="m92.6203232 42.0183792h-45.2490959c-1.0517311 0-1.9043083.8526306-1.9043083 1.9043617v34.4033775c0 1.0518341.8525772 1.9043579 1.9043083 1.9043579h45.2490959c1.0517349 0 1.9043045-.8525238 1.9043045-1.9043579v-34.4033775c0-1.0517311-.8525696-1.9043617-1.9043045-1.9043617z" fill="#ebf0f3"/><path d="m93.5484543 48.0757446h-47.1053581c-2.3500061 0-4.2550812 1.9051323-4.2550812 4.2550278v27.7954865c0 2.6561813 2.1532097 4.8093872 4.8093338 4.8093872h45.9967995c2.6561737 0 4.8093872-2.1533203 4.8093872-4.8093872v-27.7954865c0-2.3498955-1.9050751-4.2550278-4.2550812-4.2550278z" fill="#fcd462"/></svg>