<svg enable-background="new 0 0 24 24" height="512" viewBox="0 0 24 24" width="512" xmlns="http://www.w3.org/2000/svg"><path d="m15.25 18c0 1.654-1.346 3-3 3h-2.75c-.415 0-.787-.256-.934-.644l-7.25-19c-.118-.307-.076-.652.11-.923.187-.271.495-.433.824-.433h10c1.654 0 3 1.346 3 3z" fill="#2196f3"/><path d="m9.25 4v18c0 .69-.56 1.25-1.25 1.25-.14 0-.27-.02-.4-.06l-6-2c-.49-.17-.85-.64-.85-1.19v-18c0-.69.56-1.25 1.25-1.25.14 0 .27.02.4.06l6 2c.49.17.85.64.85 1.19z" fill="#64b5f6"/><path d="m7.363 23.901-6.008-2.003c-.811-.28-1.355-1.043-1.355-1.898v-18c0-1.317 1.281-2.318 2.637-1.901l6.008 2.003c.811.28 1.355 1.043 1.355 1.898v18c0 1.103-.897 2-2 2-.214 0-.417-.031-.637-.099zm-5.863-21.901v18c0 .213.142.411.337.479l5.983 1.995c.325.098.68-.135.68-.474v-18c0-.213-.142-.411-.337-.479l-5.984-1.994c-.06-.019-.116-.027-.179-.027-.276 0-.5.224-.5.5z" fill="#64b5f6"/><path d="m23.25 11.25h-9.5c-.414 0-.75-.336-.75-.75s.336-.75.75-.75h9.5c.414 0 .75.336.75.75s-.336.75-.75.75z"/><path d="m19.5 15c-.192 0-.384-.073-.53-.22-.293-.293-.293-.768 0-1.061l3.22-3.22-3.22-3.22c-.293-.293-.293-.768 0-1.061s.768-.293 1.061 0l3.75 3.75c.293.293.293.768 0 1.061l-3.75 3.75c-.147.148-.339.221-.531.221z"/><path d="m8 24c-.214 0-.417-.03-.62-.093l-6.018-2.005c-.819-.286-1.362-1.049-1.362-1.902v-18c0-1.103.897-2 2-2 .214 0 .417.03.62.093l6.018 2.005c.819.286 1.362 1.049 1.362 1.902v18c0 1.103-.897 2-2 2zm-6-22.5c-.275 0-.5.225-.5.5v18c0 .213.143.411.347.482l5.99 1.996c.043.014.099.022.163.022.275 0 .5-.225.5-.5v-18c0-.213-.143-.411-.347-.482l-5.99-1.996c-.043-.014-.099-.022-.163-.022z"/><path d="m15.25 8c-.414 0-.75-.336-.75-.75v-4.5c0-.689-.561-1.25-1.25-1.25h-11.25c-.414 0-.75-.336-.75-.75s.336-.75.75-.75h11.25c1.517 0 2.75 1.233 2.75 2.75v4.5c0 .414-.336.75-.75.75z"/><path d="m13.25 21h-4c-.414 0-.75-.336-.75-.75s.336-.75.75-.75h4c.689 0 1.25-.561 1.25-1.25v-4.5c0-.414.336-.75.75-.75s.75.336.75.75v4.5c0 1.517-1.233 2.75-2.75 2.75z"/></svg>